<?xml version="1.0" encoding="UTF-8" standalone="no" ?>
<!DOCTYPE svg PUBLIC "-//W3C//DTD SVG 1.1//EN" "http://www.w3.org/Graphics/SVG/1.1/DTD/svg11.dtd">
<svg xmlns="http://www.w3.org/2000/svg" xmlns:xlink="http://www.w3.org/1999/xlink" version="1.1" width="350" height="350" viewBox="0 0 350 350" xml:space="preserve">
<desc>Created with Fabric.js 5.3.0</desc>
<defs>
</defs>
<g transform="matrix(0.9685714286 0 0 0.9685714286 175.5 175.5)" id="bM7G41SZiHhB60o_AxNSZ"  >
<g style=""   >
		<g transform="matrix(1 0 0 1 0 0)" id="OrQc4l1_ABqB8S4E7bkB4"  >
<path style="stroke: none; stroke-width: 1; stroke-dasharray: none; stroke-linecap: butt; stroke-dashoffset: 0; stroke-linejoin: miter; stroke-miterlimit: 4; fill: none; fill-rule: nonzero; opacity: 1;"  transform=" translate(-176, -176)" d="M 0 352 L 0 0 L 352 0 L 352 352 z" stroke-linecap="round" />
</g>
		<g transform="matrix(1 0 0 1 -279.52063 88.88721)" id="Pcll0j_Y2gtt4pxyDztbT"  >
<path style="stroke: rgb(0,0,0); stroke-width: 0; stroke-dasharray: none; stroke-linecap: butt; stroke-dashoffset: 0; stroke-linejoin: miter; stroke-miterlimit: 4; fill: rgb(0,0,0); fill-rule: nonzero; opacity: 0.5;"  transform=" translate(104.52063, -263.88721)" d="M -104.52063 263.88721" stroke-linecap="round" />
</g>
		<g transform="matrix(1 0 0 1 -340.8354550167 -187.91648)" id="KTbRLuebo2ciePWE1N5z0"  >
<path style="stroke: rgb(0,0,0); stroke-width: 0; stroke-dasharray: none; stroke-linecap: butt; stroke-dashoffset: 0; stroke-linejoin: miter; stroke-miterlimit: 4; fill: rgb(0,0,0); fill-rule: nonzero; opacity: 1;"  transform=" translate(165.8354550167, 12.91648)" d="M -165.83546 -12.95585 C -165.85721 -12.95585 -165.87483 -12.938229999999999 -165.87483 -12.91648 C -165.87483 -12.89474 -165.85721 -12.87712 -165.83546 -12.87712 C -165.81373000000002 -12.87712 -165.79610000000002 -12.89475 -165.79610000000002 -12.91648 C -165.79609000000002 -12.93823 -165.81372000000002 -12.95585 -165.83546 -12.95585 z M -165.83546 -12.88712 C -165.85168000000002 -12.88716 -165.86479 -12.900269999999999 -165.86483 -12.91648 C -165.86479 -12.9327 -165.85168000000002 -12.94581 -165.83546 -12.94585 C -165.81925 -12.94581 -165.80614 -12.932690000000001 -165.80610000000001 -12.91648 C -165.80614000000003 -12.90027 -165.81925 -12.88716 -165.83546 -12.88712 z M -165.83546 -12.95849 C -165.83269 -12.95849 -165.83046000000002 -12.96073 -165.83046000000002 -12.9635 L -165.83046000000002 -12.98776 C -165.83047000000002 -12.99053 -165.83270000000002 -12.99276 -165.83546 -12.99276 C -165.83823 -12.99276 -165.84047 -12.99051 -165.84046 -12.98775 L -165.84046 -12.9635 C -165.84046 -12.96074 -165.83822 -12.958499999999999 -165.83546 -12.958499999999999 z M -165.81939 -12.9553 C -165.81876 -12.955029999999999 -165.81811 -12.95492 -165.81748 -12.95491 C -165.81551 -12.95491 -165.81365 -12.95608 -165.81285 -12.958 L -165.80357 -12.98042 C -165.80252000000002 -12.982980000000001 -165.80373 -12.9859 -165.80628000000002 -12.98695 C -165.80884 -12.988010000000001 -165.81176000000002 -12.986790000000001 -165.81282000000002 -12.98424 L -165.8221 -12.96182 C -165.82316 -12.95927 -165.82194 -12.956339999999999 -165.81939 -12.95529 z M -165.80576 -12.94619 C -165.80478 -12.945219999999999 -165.80349999999999 -12.94472 -165.80222 -12.94472 C -165.80094000000003 -12.94472 -165.79966000000002 -12.94521 -165.79868000000002 -12.94619 L -165.78153000000003 -12.96336 C -165.77957000000004 -12.96531 -165.77958000000004 -12.96848 -165.78153000000003 -12.97044 C -165.78349000000003 -12.97239 -165.78666000000004 -12.97239 -165.78861000000003 -12.97043 L -165.80576000000002 -12.95327 C -165.80772000000002 -12.95131 -165.80772000000002 -12.94815 -165.80576000000002 -12.94619 z M -165.79664 -12.93257 C -165.79585 -12.93064 -165.79398 -12.92948 -165.79202 -12.92948 C -165.79138 -12.92948 -165.79073 -12.92961 -165.7901 -12.92987 L -165.7677 -12.93916 C -165.76514 -12.94022 -165.76393 -12.94315 -165.76498999999998 -12.945699999999999 C -165.76604999999998 -12.948249999999998 -165.76897 -12.949459999999998 -165.77152999999998 -12.9484 L -165.79394 -12.93911 C -165.79649 -12.938049999999999 -165.7977 -12.93512 -165.79664 -12.93257 z M -165.76418999999999 -12.92151 L -165.78844999999998 -12.9215 C -165.79120999999998 -12.9215 -165.79344999999998 -12.91926 -165.79343999999998 -12.91649 C -165.79343999999998 -12.91372 -165.79119999999998 -12.911489999999999 -165.78844999999998 -12.911489999999999 L -165.76418999999999 -12.911499999999998 C -165.76142 -12.911499999999998 -165.75919 -12.913749999999999 -165.75919 -12.9165 C -165.75919 -12.91927 -165.76143 -12.92151 -165.76418999999999 -12.9215 z M -165.76767999999998 -12.89387 L -165.79009 -12.90314 C -165.79264999999998 -12.904200000000001 -165.79558 -12.90299 -165.79663 -12.90043 C -165.79769 -12.89787 -165.79647 -12.89495 -165.79391999999999 -12.89389 L -165.77150999999998 -12.88462 C -165.77087999999998 -12.88436 -165.77022999999997 -12.88424 -165.76958999999997 -12.88424 C -165.76761999999997 -12.88424 -165.76575999999997 -12.8854 -165.76495999999997 -12.88733 C -165.76390999999998 -12.889890000000001 -165.76512999999997 -12.89282 -165.76766999999998 -12.89387 z M -165.79864999999998 -12.8868 C -165.80060999999998 -12.88876 -165.80377 -12.88876 -165.80571999999998 -12.88679 C -165.80767999999998 -12.884839999999999 -165.80766999999997 -12.88168 -165.80571999999998 -12.879719999999999 L -165.78855 -12.862569999999998 C -165.78757 -12.861589999999998 -165.78629999999998 -12.861099999999999 -165.78501999999997 -12.861099999999999 C -165.78373999999997 -12.861099999999999 -165.78244999999998 -12.861589999999998 -165.78148 -12.862569999999998 C -165.77952 -12.864529999999998 -165.77953 -12.867699999999997 -165.78148 -12.869649999999998 L -165.79864999999998 -12.886789999999998 z M -165.81280999999998 -12.874979999999999 C -165.81386999999998 -12.87754 -165.81679 -12.878739999999999 -165.81935 -12.87769 C -165.8219 -12.876629999999999 -165.82310999999999 -12.8737 -165.82205 -12.87115 L -165.81275 -12.84875 C -165.81195 -12.846820000000001 -165.81009 -12.84566 -165.80812 -12.84566 C -165.80748 -12.84566 -165.80683 -12.845780000000001 -165.8062 -12.84604 C -165.80364 -12.847100000000001 -165.80244 -12.85003 -165.80349999999999 -12.852590000000001 L -165.81280999999998 -12.87499 z M -165.8354 -12.87446 C -165.83817 -12.87446 -165.8404 -12.872219999999999 -165.8404 -12.869459999999998 L -165.84037999999998 -12.845199999999998 C -165.84037999999998 -12.842429999999998 -165.83812999999998 -12.840199999999998 -165.83538 -12.840199999999998 C -165.83261 -12.840199999999998 -165.83038 -12.842439999999998 -165.83039 -12.845199999999998 L -165.83041 -12.869459999999998 C -165.83041 -12.872209999999999 -165.83266 -12.87446 -165.83541 -12.874449999999998 z M -165.85147999999998 -12.87764 C -165.85403 -12.878689999999999 -165.85694999999998 -12.87748 -165.85800999999998 -12.87492 L -165.86727 -12.8525 C -165.86831999999998 -12.849939999999998 -165.8671 -12.847019999999999 -165.86454999999998 -12.84596 C -165.86391999999998 -12.845699999999999 -165.86327999999997 -12.84558 -165.86263999999997 -12.84558 C -165.86067999999997 -12.84558 -165.85880999999998 -12.84675 -165.85801999999998 -12.84868 L -165.84875 -12.87111 C -165.84769 -12.87366 -165.84892 -12.87658 -165.85147 -12.87764 z M -165.86511 -12.88673 C -165.86706999999998 -12.88869 -165.87024 -12.88868 -165.87219 -12.88672 L -165.88932 -12.86955 C -165.89128 -12.86759 -165.89127 -12.86443 -165.88931 -12.86247 C -165.88833 -12.8615 -165.88706 -12.86101 -165.88577999999998 -12.86101 C -165.88448999999997 -12.86101 -165.88321 -12.8615 -165.88224 -12.86248 L -165.86509999999998 -12.87965 C -165.86315 -12.88161 -165.86315 -12.88477 -165.86511 -12.88673 z M -165.87422999999998 -12.90034 C -165.87529999999998 -12.90289 -165.87821999999997 -12.9041 -165.88076999999998 -12.90304 L -165.90317 -12.893730000000001 C -165.90572999999998 -12.89267 -165.90693 -12.889740000000002 -165.90587 -12.887190000000002 C -165.90507 -12.885260000000002 -165.90321 -12.884110000000002 -165.90125 -12.884110000000002 C -165.90061 -12.884110000000002 -165.89996 -12.884230000000002 -165.89933 -12.884490000000001 L -165.87693 -12.8938 C -165.87437999999997 -12.894870000000001 -165.87317 -12.8978 -165.87422999999998 -12.90034 z M -165.87745999999999 -12.9164 C -165.87745999999999 -12.91917 -165.87969999999999 -12.9214 -165.88245999999998 -12.9214 L -165.90671999999998 -12.92137 C -165.90948999999998 -12.92137 -165.91172999999998 -12.91913 -165.91171999999997 -12.91636 C -165.91170999999997 -12.913599999999999 -165.90946999999997 -12.911359999999998 -165.90671999999998 -12.91137 L -165.88245999999998 -12.9114 C -165.87969999999999 -12.9114 -165.87745999999999 -12.91365 -165.87747 -12.916400000000001 z M -165.90323999999998 -12.93902 L -165.88080999999997 -12.92977 C -165.88017999999997 -12.929499999999999 -165.87953999999996 -12.92939 -165.87889999999996 -12.92939 C -165.87692999999996 -12.92939 -165.87506999999997 -12.93055 -165.87426999999997 -12.93248 C -165.87320999999997 -12.93504 -165.87442999999996 -12.93797 -165.87698999999998 -12.93901 L -165.89941 -12.94826 C -165.90196999999998 -12.949309999999999 -165.90489 -12.9481 -165.90594 -12.945549999999999 C -165.90699999999998 -12.942989999999998 -165.90577 -12.940079999999998 -165.90322999999998 -12.93902 z M -165.87227 -12.94611 C -165.87129 -12.945139999999999 -165.87001999999998 -12.94465 -165.86873999999997 -12.94465 C -165.86745999999997 -12.94465 -165.86616999999998 -12.945139999999999 -165.86518999999998 -12.94613 C -165.86323 -12.948080000000001 -165.86324 -12.95125 -165.86521 -12.9532 L -165.88237999999998 -12.970320000000001 C -165.88432999999998 -12.972270000000002 -165.88751 -12.97226 -165.88944999999998 -12.970300000000002 C -165.89140999999998 -12.968350000000001 -165.89139999999998 -12.965180000000002 -165.88943999999998 -12.963230000000001 L -165.87225999999998 -12.946100000000001 z M -165.85813 -12.957949999999999 C -165.85733 -12.956029999999998 -165.85547 -12.954869999999998 -165.85351 -12.954869999999998 C -165.85287 -12.954869999999998 -165.85222 -12.954999999999998 -165.85159 -12.955259999999997 C -165.84903999999997 -12.956319999999998 -165.84781999999998 -12.959249999999997 -165.84888999999998 -12.961799999999997 L -165.85820999999999 -12.984199999999996 C -165.85926999999998 -12.986749999999995 -165.86219999999997 -12.987959999999996 -165.86475 -12.986899999999997 C -165.8673 -12.985829999999996 -165.86851 -12.982899999999997 -165.86745 -12.980359999999997 L -165.85813 -12.957959999999998 z" stroke-linecap="round" />
</g>
		<g transform="matrix(1 0 0 1 -28.8119850167 34.26741)" id="qs6lw1b3RYGVi2gvCIqfM"  >
<path style="stroke: rgb(0,0,0); stroke-width: 0; stroke-dasharray: none; stroke-linecap: butt; stroke-dashoffset: 0; stroke-linejoin: miter; stroke-miterlimit: 4; fill: rgb(0,0,0); fill-rule: nonzero; opacity: 1;"  transform=" translate(-146.1880149833, -209.26741)" d="M 146.18801 209.22804 C 146.16626 209.22804 146.14864 209.24566 146.14864 209.26740999999998 C 146.14864 209.28914999999998 146.16626 209.30676999999997 146.18801 209.30676999999997 C 146.20973999999998 209.30676999999997 146.22736999999998 209.28913999999997 146.22736999999998 209.26740999999998 C 146.22737999999998 209.24566 146.20974999999999 209.22804 146.18801 209.22804 z M 146.18801 209.29676999999998 C 146.17179 209.29672999999997 146.15868 209.28361999999998 146.15864 209.26740999999998 C 146.15868 209.25118999999998 146.17179 209.23808 146.18801 209.23803999999998 C 146.20422 209.23808 146.21733 209.25119999999998 146.21737 209.26740999999998 C 146.21732999999998 209.28361999999998 146.20422 209.29673 146.18801 209.29676999999998 z M 146.18801 209.22539999999998 C 146.19078 209.22539999999998 146.19301 209.22315999999998 146.19301 209.22038999999998 L 146.19301 209.19612999999998 C 146.19299999999998 209.19335999999998 146.19077 209.19113 146.18801 209.19113 C 146.18524 209.19113 146.183 209.19338 146.18301 209.19613999999999 L 146.18301 209.22038999999998 C 146.18301 209.22314999999998 146.18525 209.22538999999998 146.18801 209.22538999999998 z M 146.20408 209.22858999999997 C 146.20471 209.22885999999997 146.20536 209.22896999999998 146.20599 209.22897999999998 C 146.20796 209.22897999999998 146.20982 209.22780999999998 146.21062 209.22589 L 146.2199 209.20346999999998 C 146.22095 209.20091 146.21974 209.19798999999998 146.21719 209.19693999999998 C 146.21463 209.19588 146.21170999999998 209.19709999999998 146.21065 209.19965 L 146.20137 209.22207 C 146.20031 209.22462000000002 146.20153 209.22755 146.20408 209.2286 z M 146.21771 209.23769999999996 C 146.21869 209.23866999999996 146.21997000000002 209.23916999999997 146.22125 209.23916999999997 C 146.22252999999998 209.23916999999997 146.22381 209.23867999999996 146.22478999999998 209.23769999999996 L 146.24193999999997 209.22052999999997 C 146.24389999999997 209.21857999999997 146.24388999999996 209.21540999999996 146.24193999999997 209.21344999999997 C 146.23997999999997 209.21149999999997 146.23680999999996 209.21149999999997 146.23485999999997 209.21345999999997 L 146.21770999999998 209.23061999999996 C 146.21574999999999 209.23257999999996 146.21574999999999 209.23573999999996 146.21770999999998 209.23769999999996 z M 146.22683 209.25131999999996 C 146.22762 209.25324999999995 146.22949 209.25440999999995 146.23145 209.25440999999995 C 146.23209 209.25440999999995 146.23274 209.25427999999994 146.23337 209.25401999999994 L 146.25577 209.24472999999995 C 146.25833 209.24366999999995 146.25954000000002 209.24073999999996 146.25848000000002 209.23818999999995 C 146.25742000000002 209.23563999999993 146.2545 209.23442999999995 146.25194000000002 209.23548999999994 L 146.22953 209.24477999999993 C 146.22698 209.24583999999993 146.22577 209.24876999999992 146.22683 209.25131999999994 z M 146.25928000000002 209.26237999999995 L 146.23502000000002 209.26238999999995 C 146.23226000000003 209.26238999999995 146.23002000000002 209.26462999999995 146.23003000000003 209.26739999999995 C 146.23003000000003 209.27016999999995 146.23227000000003 209.27239999999995 146.23502000000002 209.27239999999995 L 146.25928000000002 209.27238999999994 C 146.26205000000002 209.27238999999994 146.26428 209.27013999999994 146.26428 209.26738999999995 C 146.26428 209.26461999999995 146.26204 209.26237999999995 146.25928000000002 209.26238999999995 z M 146.25579000000002 209.29001999999994 L 146.23338 209.28074999999995 C 146.23082000000002 209.27968999999996 146.22789 209.28089999999995 146.22684 209.28345999999996 C 146.22578000000001 209.28601999999995 146.227 209.28893999999997 146.22955000000002 209.28999999999996 L 146.25196000000003 209.29926999999995 C 146.25259000000003 209.29952999999995 146.25324000000003 209.29964999999996 146.25388000000004 209.29964999999996 C 146.25585000000004 209.29964999999996 146.25771000000003 209.29848999999996 146.25851000000003 209.29655999999997 C 146.25956000000002 209.29399999999998 146.25834000000003 209.29106999999996 146.25580000000002 209.29001999999997 z M 146.22482000000002 209.29708999999994 C 146.22286000000003 209.29512999999994 146.21970000000002 209.29512999999994 146.21775000000002 209.29709999999994 C 146.21579000000003 209.29904999999994 146.21580000000003 209.30220999999995 146.21775000000002 209.30416999999994 L 146.23492000000002 209.32131999999993 C 146.23590000000002 209.32229999999993 146.23717000000002 209.32278999999994 146.23845000000003 209.32278999999994 C 146.23973000000004 209.32278999999994 146.24102000000002 209.32229999999993 146.24199000000002 209.32131999999993 C 146.24395 209.31935999999993 146.24394 209.31618999999992 146.24199000000002 209.31423999999993 L 146.22482000000002 209.29709999999992 z M 146.21066000000002 209.30890999999994 C 146.20960000000002 209.30634999999995 146.20668 209.30514999999994 146.20412000000002 209.30619999999993 C 146.20157 209.30725999999993 146.20036000000002 209.31018999999992 146.20142 209.31273999999993 L 146.21072 209.33513999999994 C 146.21152 209.33706999999993 146.21338 209.33822999999992 146.21535 209.33822999999992 C 146.21599 209.33822999999992 146.21664 209.33810999999992 146.21727 209.33784999999992 C 146.21983 209.33678999999992 146.22103 209.33385999999993 146.21997000000002 209.3312999999999 L 146.21066000000002 209.3088999999999 z M 146.18807 209.30942999999994 C 146.1853 209.30942999999994 146.18307000000001 209.31166999999994 146.18307000000001 209.31442999999993 L 146.18309000000002 209.33868999999993 C 146.18309000000002 209.34145999999993 146.18534000000002 209.34368999999992 146.18809000000002 209.34368999999992 C 146.19086000000001 209.34368999999992 146.19309 209.34144999999992 146.19308 209.33868999999993 L 146.19306 209.31442999999993 C 146.19306 209.31167999999994 146.19081 209.30942999999994 146.18806 209.30943999999994 z M 146.17199000000002 209.30624999999995 C 146.16944 209.30519999999996 146.16652000000002 209.30640999999994 146.16546000000002 209.30896999999996 L 146.1562 209.33138999999997 C 146.15515000000002 209.33394999999996 146.15637 209.33686999999998 146.15892000000002 209.33792999999997 C 146.15955000000002 209.33818999999997 146.16019000000003 209.33830999999998 146.16083000000003 209.33830999999998 C 146.16279000000003 209.33830999999998 146.16466000000003 209.33713999999998 146.16545000000002 209.33521 L 146.17472 209.31277999999998 C 146.17578 209.31022999999996 146.17455 209.30730999999997 146.172 209.30624999999998 z M 146.15836000000002 209.29715999999996 C 146.15640000000002 209.29519999999997 146.15323 209.29520999999997 146.15128 209.29716999999997 L 146.13415 209.31433999999996 C 146.13219 209.31629999999996 146.1322 209.31945999999996 146.13416 209.32141999999996 C 146.13514 209.32238999999996 146.13641 209.32287999999997 146.13769000000002 209.32287999999997 C 146.13898000000003 209.32287999999997 146.14026 209.32238999999996 146.14123 209.32140999999996 L 146.15837000000002 209.30423999999996 C 146.16032 209.30227999999997 146.16032 209.29911999999996 146.15836000000002 209.29715999999996 z M 146.14924000000002 209.28354999999996 C 146.14817000000002 209.28099999999995 146.14525000000003 209.27978999999996 146.14270000000002 209.28084999999996 L 146.12030000000001 209.29015999999996 C 146.11774000000003 209.29121999999995 146.11654000000001 209.29414999999995 146.1176 209.29669999999996 C 146.1184 209.29862999999995 146.12026 209.29977999999997 146.12222 209.29977999999997 C 146.12286 209.29977999999997 146.12351 209.29965999999996 146.12414 209.29939999999996 L 146.14654000000002 209.29008999999996 C 146.14909000000003 209.28901999999997 146.15030000000002 209.28608999999997 146.14924000000002 209.28354999999996 z M 146.14601000000002 209.26748999999995 C 146.14601000000002 209.26471999999995 146.14377000000002 209.26248999999996 146.14101000000002 209.26248999999996 L 146.11675000000002 209.26251999999997 C 146.11398000000003 209.26251999999997 146.11174000000003 209.26475999999997 146.11175000000003 209.26752999999997 C 146.11176000000003 209.27028999999996 146.11400000000003 209.27252999999996 146.11675000000002 209.27251999999996 L 146.14101000000002 209.27248999999995 C 146.14377000000002 209.27248999999995 146.14601000000002 209.27023999999994 146.14600000000002 209.26748999999995 z M 146.12023000000002 209.24486999999996 L 146.14266000000003 209.25411999999997 C 146.14329000000004 209.25438999999997 146.14393000000004 209.25449999999998 146.14457000000004 209.25449999999998 C 146.14654000000004 209.25449999999998 146.14840000000004 209.25333999999998 146.14920000000004 209.25141 C 146.15026000000003 209.24885 146.14904000000004 209.24591999999998 146.14648000000003 209.24488 L 146.12406000000001 209.23563 C 146.12150000000003 209.23458 146.11858 209.23578999999998 146.11753000000002 209.23834 C 146.11647000000002 209.24089999999998 146.1177 209.24381 146.12024000000002 209.24487 z M 146.15120000000002 209.23777999999996 C 146.15218000000002 209.23874999999995 146.15345000000002 209.23923999999997 146.15473000000003 209.23923999999997 C 146.15601000000004 209.23923999999997 146.15730000000002 209.23874999999995 146.15828000000002 209.23775999999998 C 146.16024000000002 209.23581 146.16023 209.23263999999998 146.15826 209.23068999999998 L 146.14109000000002 209.21356999999998 C 146.13914000000003 209.21161999999998 146.13596 209.21162999999999 146.13402000000002 209.21358999999998 C 146.13206000000002 209.21553999999998 146.13207000000003 209.21871 146.13403000000002 209.22065999999998 L 146.15121000000002 209.23779 z M 146.16534000000001 209.22593999999995 C 146.16614 209.22785999999996 146.168 209.22901999999996 146.16996 209.22901999999996 C 146.1706 209.22901999999996 146.17125000000001 209.22888999999995 146.17188000000002 209.22862999999995 C 146.17443000000003 209.22756999999996 146.17565000000002 209.22463999999997 146.17458000000002 209.22208999999995 L 146.16526000000002 209.19968999999995 C 146.16420000000002 209.19713999999993 146.16127000000003 209.19592999999995 146.15872000000002 209.19698999999994 C 146.15617 209.19805999999994 146.15496000000002 209.20098999999993 146.15602 209.20352999999994 L 146.16534000000001 209.22592999999995 z" stroke-linecap="round" />
</g>
		<g transform="matrix(1 0 0 1 -18.1857950167 -14.99945)" id="nLKK-d8gd63RVwEEMRQlY"  >
<path style="stroke: rgb(0,0,0); stroke-width: 0; stroke-dasharray: none; stroke-linecap: butt; stroke-dashoffset: 0; stroke-linejoin: miter; stroke-miterlimit: 4; fill: rgb(0,0,0); fill-rule: nonzero; opacity: 1;"  transform=" translate(-156.8142049833, -160.00055)" d="M 156.8142 159.96118 C 156.79245 159.96118 156.77483 159.9788 156.77483 160.00055 C 156.77483 160.02229 156.79245 160.03991 156.8142 160.03991 C 156.83593 160.03991 156.85356 160.02228 156.85356 160.00055 C 156.85357 159.9788 156.83594 159.96118 156.8142 159.96118 z M 156.8142 160.02991 C 156.79798 160.02987 156.78487 160.01676 156.78483 160.00055 C 156.78487 159.98433 156.79798 159.97122000000002 156.8142 159.97118 C 156.83041 159.97122000000002 156.84352 159.98434 156.84356 160.00055 C 156.84351999999998 160.01676 156.83041 160.02987000000002 156.8142 160.02991 z M 156.8142 159.95854 C 156.81697 159.95854 156.8192 159.9563 156.8192 159.95353 L 156.8192 159.92927 C 156.81919 159.9265 156.81696 159.92427 156.8142 159.92427 C 156.81143 159.92427 156.80919 159.92652 156.8092 159.92928 L 156.8092 159.95353 C 156.8092 159.95629 156.81144 159.95853 156.8142 159.95853 z M 156.83027 159.96173 C 156.8309 159.962 156.83155000000002 159.96211 156.83218000000002 159.96212 C 156.83415000000002 159.96212 156.83601000000002 159.96095 156.83681 159.95903 L 156.84609 159.93661 C 156.84714 159.93405 156.84593 159.93113 156.84338 159.93008 C 156.84082 159.92902 156.8379 159.93024 156.83684 159.93279 L 156.82756 159.95521000000002 C 156.8265 159.95776000000004 156.82772 159.96069000000003 156.83027 159.96174000000002 z M 156.84390000000002 159.97083999999998 C 156.84488000000002 159.97180999999998 156.84616000000003 159.97231 156.84744 159.97231 C 156.84872 159.97231 156.85 159.97181999999998 156.85098 159.97083999999998 L 156.86812999999998 159.95367 C 156.87008999999998 159.95172 156.87007999999997 159.94854999999998 156.86812999999998 159.94659 C 156.86616999999998 159.94464 156.86299999999997 159.94464 156.86104999999998 159.9466 L 156.8439 159.96375999999998 C 156.84194 159.96571999999998 156.84194 159.96887999999998 156.8439 159.97083999999998 z M 156.85302000000001 159.98445999999998 C 156.85381 159.98638999999997 156.85568 159.98754999999997 156.85764 159.98754999999997 C 156.85828 159.98754999999997 156.85893000000002 159.98741999999996 156.85956000000002 159.98715999999996 L 156.88196000000002 159.97786999999997 C 156.88452 159.97680999999997 156.88573000000002 159.97387999999998 156.88467000000003 159.97132999999997 C 156.88361000000003 159.96877999999995 156.88069000000002 159.96756999999997 156.87813000000003 159.96862999999996 L 156.85572000000002 159.97791999999995 C 156.85317 159.97897999999995 156.85196000000002 159.98190999999994 156.85302000000001 159.98445999999996 z M 156.88547000000003 159.99551999999997 L 156.86121000000003 159.99552999999997 C 156.85845000000003 159.99552999999997 156.85621000000003 159.99776999999997 156.85622000000004 160.00053999999997 C 156.85622000000004 160.00330999999997 156.85846000000004 160.00553999999997 156.86121000000003 160.00553999999997 L 156.88547000000003 160.00552999999996 C 156.88824000000002 160.00552999999996 156.89047000000002 160.00327999999996 156.89047000000002 160.00052999999997 C 156.89047000000002 159.99775999999997 156.88823000000002 159.99551999999997 156.88547000000003 159.99552999999997 z M 156.88198000000003 160.02315999999996 L 156.85957000000002 160.01388999999998 C 156.85701000000003 160.01282999999998 156.85408 160.01403999999997 156.85303000000002 160.01659999999998 C 156.85197000000002 160.01915999999997 156.85319 160.02208 156.85574000000003 160.02313999999998 L 156.87815000000003 160.03240999999997 C 156.87878000000003 160.03266999999997 156.87943000000004 160.03278999999998 156.88007000000005 160.03278999999998 C 156.88204000000005 160.03278999999998 156.88390000000004 160.03162999999998 156.88470000000004 160.0297 C 156.88575000000003 160.02714 156.88453000000004 160.02420999999998 156.88199000000003 160.02316 z M 156.85101000000003 160.03022999999996 C 156.84905000000003 160.02826999999996 156.84589000000003 160.02826999999996 156.84394000000003 160.03023999999996 C 156.84198000000004 160.03218999999996 156.84199000000004 160.03534999999997 156.84394000000003 160.03730999999996 L 156.86111000000002 160.05445999999995 C 156.86209000000002 160.05543999999995 156.86336000000003 160.05592999999996 156.86464000000004 160.05592999999996 C 156.86592000000005 160.05592999999996 156.86721000000003 160.05543999999995 156.86818000000002 160.05445999999995 C 156.87014000000002 160.05249999999995 156.87013000000002 160.04932999999994 156.86818000000002 160.04737999999995 L 156.85101000000003 160.03023999999994 z M 156.83685000000003 160.04204999999996 C 156.83579000000003 160.03948999999997 156.83287 160.03828999999996 156.83031000000003 160.03933999999995 C 156.82776 160.04039999999995 156.82655000000003 160.04332999999994 156.82761000000002 160.04587999999995 L 156.83691000000002 160.06827999999996 C 156.83771000000002 160.07020999999995 156.83957 160.07136999999994 156.84154 160.07136999999994 C 156.84218 160.07136999999994 156.84283000000002 160.07124999999994 156.84346000000002 160.07098999999994 C 156.84602 160.06992999999994 156.84722000000002 160.06699999999995 156.84616000000003 160.06443999999993 L 156.83685000000003 160.04203999999993 z M 156.81426000000002 160.04256999999996 C 156.81149000000002 160.04256999999996 156.80926000000002 160.04480999999996 156.80926000000002 160.04756999999995 L 156.80928000000003 160.07182999999995 C 156.80928000000003 160.07459999999995 156.81153000000003 160.07682999999994 156.81428000000002 160.07682999999994 C 156.81705000000002 160.07682999999994 156.81928000000002 160.07458999999994 156.81927000000002 160.07182999999995 L 156.81925 160.04756999999995 C 156.81925 160.04481999999996 156.817 160.04256999999996 156.81425000000002 160.04257999999996 z M 156.79818000000003 160.03938999999997 C 156.79563000000002 160.03833999999998 156.79271000000003 160.03954999999996 156.79165000000003 160.04210999999998 L 156.78239000000002 160.06453 C 156.78134000000003 160.06708999999998 156.78256000000002 160.07001 156.78511000000003 160.07107 C 156.78574000000003 160.07133 156.78638000000004 160.07145 156.78702000000004 160.07145 C 156.78898000000004 160.07145 156.79085000000003 160.07028 156.79164000000003 160.06835 L 156.80091000000002 160.04592 C 156.80197 160.04336999999998 156.80074000000002 160.04045 156.79819 160.03939 z M 156.78455000000002 160.03029999999998 C 156.78259000000003 160.02834 156.77942000000002 160.02835 156.77747000000002 160.03031 L 156.76034 160.04747999999998 C 156.75838000000002 160.04943999999998 156.75839000000002 160.05259999999998 156.76035000000002 160.05455999999998 C 156.76133000000002 160.05552999999998 156.76260000000002 160.05602 156.76388000000003 160.05602 C 156.76517000000004 160.05602 156.76645000000002 160.05552999999998 156.76742000000002 160.05454999999998 L 156.78456000000003 160.03737999999998 C 156.78651000000002 160.03542 156.78651000000002 160.03225999999998 156.78455000000002 160.03029999999998 z M 156.77543000000003 160.01668999999998 C 156.77436000000003 160.01413999999997 156.77144000000004 160.01292999999998 156.76889000000003 160.01398999999998 L 156.74649000000002 160.02329999999998 C 156.74393000000003 160.02435999999997 156.74273000000002 160.02728999999997 156.74379000000002 160.02983999999998 C 156.74459000000002 160.03176999999997 156.74645 160.03292 156.74841 160.03292 C 156.74905 160.03292 156.74970000000002 160.03279999999998 156.75033000000002 160.03253999999998 L 156.77273000000002 160.02322999999998 C 156.77528000000004 160.02215999999999 156.77649000000002 160.01923 156.77543000000003 160.01668999999998 z M 156.77220000000003 160.00062999999997 C 156.77220000000003 159.99785999999997 156.76996000000003 159.99562999999998 156.76720000000003 159.99562999999998 L 156.74294000000003 159.99566 C 156.74017000000003 159.99566 156.73793000000003 159.9979 156.73794000000004 160.00066999999999 C 156.73795000000004 160.00342999999998 156.74019000000004 160.00566999999998 156.74294000000003 160.00565999999998 L 156.76720000000003 160.00562999999997 C 156.76996000000003 160.00562999999997 156.77220000000003 160.00337999999996 156.77219000000002 160.00062999999997 z M 156.74642000000003 159.97800999999998 L 156.76885000000004 159.98726 C 156.76948000000004 159.98753 156.77012000000005 159.98764 156.77076000000005 159.98764 C 156.77273000000005 159.98764 156.77459000000005 159.98648 156.77539000000004 159.98455 C 156.77645000000004 159.98199000000002 156.77523000000005 159.97906 156.77267000000003 159.97802000000001 L 156.75025000000002 159.96877 C 156.74769000000003 159.96772 156.74477000000002 159.96893 156.74372000000002 159.97148 C 156.74266000000003 159.97404 156.74389000000002 159.97695000000002 156.74643000000003 159.97801 z M 156.77739000000003 159.97091999999998 C 156.77837000000002 159.97188999999997 156.77964000000003 159.97238 156.78092000000004 159.97238 C 156.78220000000005 159.97238 156.78349000000003 159.97188999999997 156.78447000000003 159.9709 C 156.78643000000002 159.96895 156.78642000000002 159.96578 156.78445000000002 159.96383 L 156.76728000000003 159.94671 C 156.76533000000003 159.94476 156.76215000000002 159.94477 156.76021000000003 159.94673 C 156.75825000000003 159.94868 156.75826000000004 159.95185 156.76022000000003 159.9538 L 156.77740000000003 159.97093 z M 156.79153000000002 159.95907999999997 C 156.79233000000002 159.96099999999998 156.79419000000001 159.96215999999998 156.79615 159.96215999999998 C 156.79679000000002 159.96215999999998 156.79744000000002 159.96202999999997 156.79807000000002 159.96176999999997 C 156.80062000000004 159.96070999999998 156.80184000000003 159.95777999999999 156.80077000000003 159.95522999999997 L 156.79145000000003 159.93282999999997 C 156.79039000000003 159.93027999999995 156.78746000000004 159.92906999999997 156.78491000000002 159.93012999999996 C 156.78236 159.93119999999996 156.78115000000003 159.93412999999995 156.78221000000002 159.93666999999996 L 156.79153000000002 159.95906999999997 z" stroke-linecap="round" />
</g>
		<g transform="matrix(1 0 0 1 -401.6945350167 42.96158)" id="xeFF_QXpD7uQVzDe-Q59e"  >
<path style="stroke: rgb(0,0,0); stroke-width: 0; stroke-dasharray: none; stroke-linecap: butt; stroke-dashoffset: 0; stroke-linejoin: miter; stroke-miterlimit: 4; fill: rgb(0,0,0); fill-rule: nonzero; opacity: 1;"  transform=" translate(226.6945350167, -217.96158)" d="M -226.69454 217.92221 C -226.71629 217.92221 -226.73390999999998 217.93983 -226.73390999999998 217.96158 C -226.73390999999998 217.98332 -226.71629 218.00093999999999 -226.69454 218.00093999999999 C -226.67281 218.00093999999999 -226.65518 217.98331 -226.65518 217.96158 C -226.65517 217.93983 -226.6728 217.92221 -226.69454 217.92221 z M -226.69454 217.99094 C -226.71076 217.99089999999998 -226.72386999999998 217.97779 -226.72391 217.96158 C -226.72386999999998 217.94536 -226.71076 217.93225 -226.69454 217.93221 C -226.67833 217.93225 -226.66521999999998 217.94537 -226.66518 217.96158 C -226.66522 217.97779 -226.67833 217.9909 -226.69454 217.99094 z M -226.69454 217.91957 C -226.69177 217.91957 -226.68954 217.91733 -226.68954 217.91456 L -226.68954 217.8903 C -226.68955 217.88753 -226.69178 217.8853 -226.69454 217.8853 C -226.69731 217.8853 -226.69955 217.88755 -226.69953999999998 217.89031 L -226.69953999999998 217.91456 C -226.69953999999998 217.91732 -226.69729999999998 217.91956 -226.69454 217.91956 z M -226.67846999999998 217.92275999999998 C -226.67783999999997 217.92302999999998 -226.67718999999997 217.92314 -226.67655999999997 217.92315 C -226.67458999999997 217.92315 -226.67272999999997 217.92198 -226.67192999999997 217.92006 L -226.66264999999999 217.89764 C -226.6616 217.89508 -226.66280999999998 217.89216 -226.66536 217.89111 C -226.66791999999998 217.89005 -226.67084 217.89127 -226.6719 217.89382 L -226.68117999999998 217.91624000000002 C -226.68223999999998 217.91879000000003 -226.68102 217.92172000000002 -226.67846999999998 217.92277 z M -226.66483999999997 217.93186999999998 C -226.66385999999997 217.93283999999997 -226.66257999999996 217.93334 -226.66129999999998 217.93334 C -226.66002 217.93334 -226.65874 217.93284999999997 -226.65776 217.93186999999998 L -226.64061 217.91469999999998 C -226.63865 217.91275 -226.63866000000002 217.90957999999998 -226.64061 217.90761999999998 C -226.64257 217.90567 -226.64574000000002 217.90567 -226.64769 217.90762999999998 L -226.66484 217.92478999999997 C -226.6668 217.92674999999997 -226.6668 217.92990999999998 -226.66484 217.93186999999998 z M -226.65571999999997 217.94548999999998 C -226.65492999999998 217.94741999999997 -226.65305999999998 217.94857999999996 -226.65109999999999 217.94857999999996 C -226.65045999999998 217.94857999999996 -226.64980999999997 217.94844999999995 -226.64917999999997 217.94818999999995 L -226.62677999999997 217.93889999999996 C -226.62421999999998 217.93783999999997 -226.62300999999997 217.93490999999997 -226.62406999999996 217.93235999999996 C -226.62512999999996 217.92980999999995 -226.62804999999997 217.92859999999996 -226.63060999999996 217.92965999999996 L -226.65301999999997 217.93894999999995 C -226.65556999999998 217.94000999999994 -226.65677999999997 217.94293999999994 -226.65571999999997 217.94548999999995 z M -226.62326999999996 217.95654999999996 L -226.64752999999996 217.95655999999997 C -226.65028999999996 217.95655999999997 -226.65252999999996 217.95879999999997 -226.65251999999995 217.96156999999997 C -226.65251999999995 217.96433999999996 -226.65027999999995 217.96656999999996 -226.64752999999996 217.96656999999996 L -226.62326999999996 217.96655999999996 C -226.62049999999996 217.96655999999996 -226.61826999999997 217.96430999999995 -226.61826999999997 217.96155999999996 C -226.61826999999997 217.95878999999996 -226.62050999999997 217.95654999999996 -226.62326999999996 217.95655999999997 z M -226.62675999999996 217.98418999999996 L -226.64916999999997 217.97491999999997 C -226.65172999999996 217.97385999999997 -226.65465999999998 217.97506999999996 -226.65570999999997 217.97762999999998 C -226.65676999999997 217.98018999999996 -226.65554999999998 217.98310999999998 -226.65299999999996 217.98416999999998 L -226.63058999999996 217.99343999999996 C -226.62995999999995 217.99369999999996 -226.62930999999995 217.99381999999997 -226.62866999999994 217.99381999999997 C -226.62669999999994 217.99381999999997 -226.62483999999995 217.99265999999997 -226.62403999999995 217.99072999999999 C -226.62298999999996 217.98817 -226.62420999999995 217.98523999999998 -226.62674999999996 217.98418999999998 z M -226.65772999999996 217.99125999999995 C -226.65968999999996 217.98929999999996 -226.66284999999996 217.98929999999996 -226.66479999999996 217.99126999999996 C -226.66675999999995 217.99321999999995 -226.66674999999995 217.99637999999996 -226.66479999999996 217.99833999999996 L -226.64762999999996 218.01548999999994 C -226.64664999999997 218.01646999999994 -226.64537999999996 218.01695999999995 -226.64409999999995 218.01695999999995 C -226.64281999999994 218.01695999999995 -226.64152999999996 218.01646999999994 -226.64055999999997 218.01548999999994 C -226.63859999999997 218.01352999999995 -226.63860999999997 218.01035999999993 -226.64055999999997 218.00840999999994 L -226.65772999999996 217.99126999999993 z M -226.67188999999996 218.00307999999995 C -226.67294999999996 218.00051999999997 -226.67586999999997 217.99931999999995 -226.67842999999996 218.00036999999995 C -226.68097999999998 218.00142999999994 -226.68218999999996 218.00435999999993 -226.68112999999997 218.00690999999995 L -226.67182999999997 218.02930999999995 C -226.67102999999997 218.03123999999994 -226.66916999999998 218.03239999999994 -226.66719999999998 218.03239999999994 C -226.66655999999998 218.03239999999994 -226.66590999999997 218.03227999999993 -226.66527999999997 218.03201999999993 C -226.66271999999998 218.03095999999994 -226.66151999999997 218.02802999999994 -226.66257999999996 218.02546999999993 L -226.67188999999996 218.00306999999992 z M -226.69447999999997 218.00359999999995 C -226.69724999999997 218.00359999999995 -226.69947999999997 218.00583999999995 -226.69947999999997 218.00859999999994 L -226.69945999999996 218.03285999999994 C -226.69945999999996 218.03562999999994 -226.69720999999996 218.03785999999994 -226.69445999999996 218.03785999999994 C -226.69168999999997 218.03785999999994 -226.68945999999997 218.03561999999994 -226.68946999999997 218.03285999999994 L -226.68948999999998 218.00859999999994 C -226.68948999999998 218.00584999999995 -226.69173999999998 218.00359999999995 -226.69448999999997 218.00360999999995 z M -226.71055999999996 218.00041999999996 C -226.71310999999997 217.99936999999997 -226.71602999999996 218.00057999999996 -226.71708999999996 218.00313999999997 L -226.72634999999997 218.02555999999998 C -226.72739999999996 218.02811999999997 -226.72617999999997 218.03104 -226.72362999999996 218.03209999999999 C -226.72299999999996 218.03235999999998 -226.72235999999995 218.03248 -226.72171999999995 218.03248 C -226.71975999999995 218.03248 -226.71788999999995 218.03131 -226.71709999999996 218.02938 L -226.70782999999997 218.00695 C -226.70676999999998 218.00439999999998 -226.70799999999997 218.00148 -226.71054999999998 218.00042 z M -226.72418999999996 217.99132999999998 C -226.72614999999996 217.98936999999998 -226.72931999999997 217.98937999999998 -226.73126999999997 217.99133999999998 L -226.74839999999998 218.00850999999997 C -226.75035999999997 218.01046999999997 -226.75034999999997 218.01362999999998 -226.74838999999997 218.01558999999997 C -226.74740999999997 218.01655999999997 -226.74613999999997 218.01704999999998 -226.74485999999996 218.01704999999998 C -226.74356999999995 218.01704999999998 -226.74228999999997 218.01655999999997 -226.74131999999997 218.01557999999997 L -226.72417999999996 217.99840999999998 C -226.72222999999997 217.99644999999998 -226.72222999999997 217.99328999999997 -226.72418999999996 217.99132999999998 z M -226.73330999999996 217.97771999999998 C -226.73437999999996 217.97516999999996 -226.73729999999995 217.97395999999998 -226.73984999999996 217.97501999999997 L -226.76224999999997 217.98432999999997 C -226.76480999999995 217.98538999999997 -226.76600999999997 217.98831999999996 -226.76494999999997 217.99086999999997 C -226.76414999999997 217.99279999999996 -226.76228999999998 217.99394999999998 -226.76032999999998 217.99394999999998 C -226.75968999999998 217.99394999999998 -226.75903999999997 217.99382999999997 -226.75840999999997 217.99356999999998 L -226.73600999999996 217.98425999999998 C -226.73345999999995 217.98318999999998 -226.73224999999996 217.98026 -226.73330999999996 217.97771999999998 z M -226.73653999999996 217.96165999999997 C -226.73653999999996 217.95888999999997 -226.73877999999996 217.95665999999997 -226.74153999999996 217.95665999999997 L -226.76579999999996 217.95668999999998 C -226.76856999999995 217.95668999999998 -226.77080999999995 217.95892999999998 -226.77079999999995 217.96169999999998 C -226.77078999999995 217.96445999999997 -226.76854999999995 217.96669999999997 -226.76579999999996 217.96668999999997 L -226.74153999999996 217.96665999999996 C -226.73877999999996 217.96665999999996 -226.73653999999996 217.96440999999996 -226.73654999999997 217.96165999999997 z M -226.76231999999996 217.93903999999998 L -226.73988999999995 217.94829 C -226.73925999999994 217.94856 -226.73861999999994 217.94867 -226.73797999999994 217.94867 C -226.73600999999994 217.94867 -226.73414999999994 217.94751 -226.73334999999994 217.94558 C -226.73228999999995 217.94302000000002 -226.73350999999994 217.94009 -226.73606999999996 217.93905 L -226.75848999999997 217.9298 C -226.76104999999995 217.92875 -226.76396999999997 217.92996 -226.76501999999996 217.93251 C -226.76607999999996 217.93507 -226.76484999999997 217.93798 -226.76230999999996 217.93904 z M -226.73134999999996 217.93194999999997 C -226.73036999999997 217.93291999999997 -226.72909999999996 217.93340999999998 -226.72781999999995 217.93340999999998 C -226.72653999999994 217.93340999999998 -226.72524999999996 217.93291999999997 -226.72426999999996 217.93193 C -226.72230999999996 217.92998 -226.72231999999997 217.92681 -226.72428999999997 217.92486 L -226.74145999999996 217.90774 C -226.74340999999995 217.90579 -226.74658999999997 217.9058 -226.74852999999996 217.90776 C -226.75048999999996 217.90971 -226.75047999999995 217.91288 -226.74851999999996 217.91483 L -226.73133999999996 217.93196 z M -226.71720999999997 217.92010999999997 C -226.71640999999997 217.92202999999998 -226.71454999999997 217.92318999999998 -226.71258999999998 217.92318999999998 C -226.71194999999997 217.92318999999998 -226.71129999999997 217.92305999999996 -226.71066999999996 217.92279999999997 C -226.70811999999995 217.92173999999997 -226.70689999999996 217.91880999999998 -226.70796999999996 217.91625999999997 L -226.71728999999996 217.89385999999996 C -226.71834999999996 217.89130999999995 -226.72127999999995 217.89009999999996 -226.72382999999996 217.89115999999996 C -226.72637999999998 217.89222999999996 -226.72758999999996 217.89515999999995 -226.72652999999997 217.89769999999996 L -226.71720999999997 217.92009999999996 z" stroke-linecap="round" />
</g>
		<g transform="matrix(1 0 0 1 -0.5247431332 -0.259905)" id="9zAHqH7Pa50OTXE1GTnwb"  >
<path style="stroke: rgb(0,0,0); stroke-width: 5; stroke-dasharray: none; stroke-linecap: butt; stroke-dashoffset: 0; stroke-linejoin: miter; stroke-miterlimit: 4; fill: none; fill-rule: nonzero; opacity: 1;"  transform=" translate(-174.4752568668, -174.740095)" d="M 174.48672 84.78474 C 124.78132 84.78474 84.52565999999999 125.0404 84.52565999999999 174.7458 C 84.52565999999999 224.41692 124.78132 264.69544 174.48672 264.69544 C 224.14641999999998 264.69544 264.42493 224.41692 264.42493 174.74580000000003 C 264.43636000000004 125.04040000000003 224.16927 84.78474000000003 174.48672000000002 84.78474000000003 z M 174.48672 241.85381 C 137.41906 241.7624 107.4587 211.80204 107.36729 174.75723 C 107.44727999999999 137.701 137.41906 107.72921 174.48672 107.6378 C 211.53152999999998 107.72921 241.49189 137.701 241.57187 174.75723 C 241.49187999999998 211.80203999999998 211.53152999999998 241.7624 174.48672 241.85381 z M 174.48672 78.76296000000002 C 180.80559 78.76296000000002 185.91325 73.64387000000002 185.91325 67.32500000000002 L 185.91325 11.894910000000017 C 185.8904 5.576040000000017 180.79416 0.46838000000001756 174.48672 0.46838000000001756 C 168.16785 0.46838000000001756 163.04876 5.598890000000018 163.06018999999998 11.917760000000017 L 163.06018999999998 67.33643000000002 C 163.06018999999998 73.63245000000002 168.16785 78.76296000000002 174.48672 78.76296000000002 z M 211.20015999999998 86.05309000000003 C 212.62848 86.65870000000002 214.11391999999998 86.92151000000003 215.56508999999997 86.93293000000003 C 220.06713999999997 86.93293000000003 224.30637999999996 84.27055000000003 226.13462999999996 79.87133000000003 L 247.34226999999996 28.64620000000003 C 249.74183999999997 22.80724000000003 246.98804999999996 16.134150000000027 241.16051999999996 13.723150000000029 C 235.32155999999998 11.31215000000003 228.63703999999996 14.077370000000029 226.21461999999997 19.90490000000003 L 205.01840999999996 71.14146000000002 C 202.60740999999996 76.96899000000002 205.37262999999996 83.65351000000003 211.20015999999995 86.05308000000002 z M 242.33745 106.86080000000003 C 244.56562 109.07755000000003 247.49080999999998 110.20877000000003 250.41601 110.20877000000003 C 253.34121000000002 110.20877000000003 256.26639 109.08897000000003 258.49457 106.86080000000003 L 297.68756 67.63353000000004 C 302.15533 63.177180000000035 302.14391 55.944190000000035 297.68756 51.464990000000036 C 293.20836 47.008640000000035 285.97537 47.008640000000035 281.51902 51.487840000000034 L 242.33745000000002 90.69226000000003 C 237.86968000000002 95.16003000000003 237.86968000000002 102.39303000000004 242.33745000000002 106.86080000000004 z M 263.16801 137.98667000000003 C 264.97339999999997 142.38588000000004 269.2355 145.03684000000004 273.7147 145.03684000000004 C 275.16587 145.03684000000004 276.65132 144.75118000000003 278.09105999999997 144.14557000000005 L 329.28191 122.92651000000005 C 335.12086999999997 120.51551000000005 337.88608999999997 113.81957000000006 335.46366 107.99204000000005 C 333.04123000000004 102.16451000000004 326.36814 99.39929000000005 320.52919 101.82171000000005 L 269.32691 123.04077000000005 C 263.49938 125.46319000000005 260.74559 132.15914000000006 263.16801 137.98667000000006 z M 337.31476 163.25073000000003 L 281.88466999999997 163.26216000000002 C 275.57723 163.26216000000002 270.45813999999996 168.38125000000002 270.48098999999996 174.70012000000003 C 270.48098999999996 181.01899000000003 275.58865 186.11522000000002 281.88466999999997 186.11522000000002 L 337.32619 186.09237000000002 C 343.64506 186.09237000000002 348.74129 180.96186000000003 348.74129 174.66584 C 348.74129 168.34697 343.6222 163.22788 337.31476 163.25074 z M 329.33903999999995 226.41658000000004 L 278.12533999999994 205.23179000000005 C 272.27495999999996 202.80937000000006 265.59043999999994 205.57459000000006 263.19086999999996 211.41354000000004 C 260.77986999999996 217.25250000000005 263.54508999999996 223.93702000000005 269.37262 226.35944000000003 L 320.58632 247.54423000000003 C 322.02606 248.12698000000003 323.51151 248.40122000000002 324.96268 248.40122000000002 C 329.45331 248.40122000000002 333.70396999999997 245.75027000000003 335.53222 241.35105000000001 C 337.93179 235.51209 335.15514 228.81615000000002 329.33904 226.41658 z M 258.56311999999997 242.56227000000004 C 254.09534999999997 238.09450000000004 246.87377999999998 238.09450000000004 242.40600999999998 242.57370000000003 C 237.93823999999998 247.03005000000002 237.94966 254.25161000000003 242.40600999999998 258.71939000000003 L 281.64471 297.90096000000005 C 283.87287999999995 300.12913000000003 286.78664999999995 301.24893000000003 289.71184 301.24893000000003 C 292.63703000000004 301.24893000000003 295.57365 300.12913000000003 297.80182 297.90096000000005 C 302.26959 293.42176000000006 302.24674000000005 286.18877000000003 297.80182 281.73242000000005 L 258.56312 242.56228000000004 z M 226.21461999999997 269.56316000000004 C 223.80361999999997 263.72420000000005 217.11909999999997 260.97041 211.28014999999996 263.38141 C 205.45261999999997 265.80383 202.68739999999997 272.48835 205.10981999999996 278.32731 L 226.36315999999997 329.51816 C 228.17997999999997 333.91737 232.43064999999996 336.56833 236.93269999999995 336.56833 C 238.39529999999996 336.56833 239.88073999999995 336.29409 241.30905999999996 335.69991 C 247.14801999999997 333.28891 249.90180999999995 326.59297 247.47938999999997 320.74258 L 226.21461999999997 269.56316 z M 174.60098999999997 270.74009000000007 C 168.28211999999996 270.74009000000007 163.17445999999995 275.85918000000004 163.17445999999995 282.1666200000001 L 163.22016999999997 337.5967100000001 C 163.22016999999997 343.9155800000001 168.35067999999995 349.0118100000001 174.64669999999995 349.0118100000001 C 180.96556999999996 349.0118100000001 186.07322999999997 343.89272000000005 186.05037999999996 337.58528000000007 L 186.01609999999997 282.14376000000004 C 186.01609999999997 275.85917000000006 180.88558999999998 270.72866000000005 174.60099999999997 270.74008000000003 z M 137.85326999999995 263.47282000000007 C 132.02573999999996 261.0732500000001 125.35264999999995 263.82704000000007 122.93021999999995 269.6774300000001 L 101.76828999999995 320.90256000000005 C 99.36871999999995 326.74152000000004 102.14536999999996 333.42604000000006 107.97289999999995 335.83703 C 109.40121999999995 336.43121 110.87523999999995 336.70545000000004 112.33782999999995 336.70545000000004 C 116.81702999999996 336.70545000000004 121.07911999999996 334.03164000000004 122.89593999999995 329.63243000000006 L 144.06929999999994 278.3844500000001 C 146.48029999999994 272.55692000000005 143.69221999999993 265.88383000000005 137.85326999999995 263.47283000000004 z M 106.70454999999995 242.71082000000007 C 102.22534999999995 238.24305000000007 94.99235999999996 238.26590000000007 90.53600999999995 242.73367000000007 L 51.38871999999995 281.96094000000005 C 46.92094999999995 286.44014000000004 46.94379999999995 293.65028000000007 51.41156999999995 298.12948000000006 C 53.63973999999995 300.34623000000005 56.553509999999946 301.46603000000005 59.47869999999995 301.46603000000005 C 62.415319999999944 301.46603000000005 65.34050999999995 300.34623000000005 67.56867999999994 298.11806000000007 L 106.72738999999994 258.8793600000001 C 111.17230999999994 254.41159000000007 111.17230999999994 247.17859000000007 106.70453999999994 242.71082000000007 z M 85.86255999999996 211.61923000000007 C 83.42870999999995 205.80313000000007 76.75561999999996 203.03791000000007 70.92808999999995 205.44890000000007 L 19.748669999999954 226.71367000000006 C 13.909709999999954 229.13609000000005 11.155919999999954 235.83204000000006 13.578339999999955 241.65957000000006 C 15.406579999999956 246.05878000000007 19.645829999999954 248.69831000000005 24.136449999999954 248.69831000000005 C 25.587619999999955 248.69831000000005 27.084489999999953 248.42407000000006 28.512809999999952 247.82989000000006 L 79.69222999999995 226.56512000000006 C 85.50832999999996 224.11984000000007 88.27354999999996 217.43532000000008 85.86255999999995 211.61922000000007 z M 78.48101999999996 174.91722000000007 C 78.48101999999996 168.59835000000007 73.37335999999996 163.50212000000008 67.05448999999996 163.50212000000008 L 11.624399999999959 163.57068000000007 C 5.305529999999958 163.57068000000007 0.18643999999995842 168.68977000000007 0.20929999999995808 175.00864000000007 C 0.22072999999995807 181.30466000000007 5.339809999999958 186.43517000000008 11.635829999999958 186.41232000000008 L 67.07734999999995 186.3437600000001 C 73.38478999999995 186.3437600000001 78.50387999999995 181.20182000000008 78.48102999999995 174.91723000000007 z M 19.56583999999996 123.23503000000008 L 70.81381999999996 144.3741100000001 C 72.24213999999996 144.9797200000001 73.71615999999996 145.24253000000007 75.16732999999996 145.24253000000007 C 79.65795999999996 145.24253000000007 83.92004999999996 142.59158000000008 85.73686999999997 138.18093000000007 C 88.15928999999997 132.34197000000006 85.37121999999997 125.64603000000008 79.52083999999996 123.25788000000007 L 28.295709999999964 102.11880000000008 C 22.456749999999964 99.71923000000008 15.783659999999964 102.48445000000008 13.372659999999964 108.31198000000008 C 10.950239999999965 114.15094000000008 13.749739999999964 120.81260000000007 19.565839999999966 123.23503000000008 z M 90.33032999999995 107.03221000000008 C 92.55849999999995 109.23753000000008 95.46083999999995 110.35733000000008 98.38602999999995 110.35733000000008 C 101.31121999999995 110.35733000000008 104.24783999999995 109.23753000000008 106.48743999999995 106.98650000000008 C 110.95520999999995 102.54158000000008 110.93235999999995 95.29716000000008 106.44172999999995 90.82939000000007 L 67.20302999999996 51.704950000000075 C 62.746679999999955 47.248600000000074 55.490839999999956 47.271460000000076 51.04591999999995 51.73923000000008 C 46.57814999999995 56.19558000000008 46.60099999999996 63.440000000000076 51.06876999999995 67.89634000000008 L 90.33031999999994 107.03220000000007 z M 122.63312999999994 79.98562000000008 C 124.46136999999993 84.37341000000008 128.71203999999994 87.01294000000009 133.17981999999995 87.01294000000009 C 134.64241999999996 87.01294000000009 136.12785999999994 86.72728000000009 137.56760999999995 86.13310000000008 C 143.39513999999994 83.71068000000008 146.17178999999993 77.01473000000009 143.73793999999995 71.19863000000008 L 122.43888999999996 20.01921000000008 C 120.01646999999996 14.19168000000008 113.32051999999996 11.43789000000008 107.49298999999996 13.86031000000008 C 101.66545999999997 16.29416000000008 98.91166999999996 22.99011000000008 101.33408999999996 28.80621000000008 L 122.63313999999997 79.98563000000007 z" stroke-linecap="round" />
</g>
		<g transform="matrix(1 0 0 1 232.0125949833 -118.36326)" id="x6P_VL4rSChqfl87maysM"  >
<path style="stroke: rgb(0,0,0); stroke-width: 1; stroke-dasharray: none; stroke-linecap: butt; stroke-dashoffset: 0; stroke-linejoin: miter; stroke-miterlimit: 4; fill: none; fill-rule: nonzero; opacity: 1;"  transform=" translate(-407.0125949833, -56.63674)" d="M 407.01259 56.59737 C 406.99084 56.59737 406.97321999999997 56.61499 406.97321999999997 56.636739999999996 C 406.97321999999997 56.65848 406.99084 56.6761 407.01259 56.6761 C 407.03432 56.6761 407.05195 56.65847 407.05195 56.636739999999996 C 407.05195999999995 56.61499 407.03432999999995 56.59737 407.01259 56.59737 z M 407.01259 56.6661 C 406.99637 56.66606 406.98326 56.65295 406.98322 56.63674 C 406.98326000000003 56.620520000000006 406.99637 56.60741 407.01259 56.60737 C 407.0288 56.60741 407.04191 56.62053 407.04195 56.63674 C 407.04191 56.652950000000004 407.0288 56.66606 407.01259 56.6661 z M 407.01259 56.59473 C 407.01536 56.59473 407.01759 56.59249 407.01759 56.58972 L 407.01759 56.56546 C 407.01758 56.56269 407.01535 56.56046 407.01259 56.56046 C 407.00982 56.56046 407.00757999999996 56.562709999999996 407.00759 56.56547 L 407.00759 56.58972 C 407.00759 56.59248 407.00982999999997 56.59472 407.01259 56.59472 z M 407.02866 56.597919999999995 C 407.02929 56.598189999999995 407.02994 56.598299999999995 407.03057 56.59831 C 407.03254 56.59831 407.0344 56.597139999999996 407.03520000000003 56.59522 L 407.04448 56.5728 C 407.04553000000004 56.57024 407.04432 56.56732 407.04177000000004 56.56627 C 407.03921 56.56521 407.03629000000006 56.566430000000004 407.03523000000007 56.56898 L 407.0259500000001 56.5914 C 407.0248900000001 56.59395 407.0261100000001 56.59688 407.02866000000006 56.59793 z M 407.04229 56.607029999999995 C 407.04327 56.608 407.04454999999996 56.60849999999999 407.04582999999997 56.60849999999999 C 407.04711 56.60849999999999 407.04839 56.60800999999999 407.04936999999995 56.607029999999995 L 407.06651999999997 56.589859999999994 C 407.06847999999997 56.587909999999994 407.06847 56.58474 407.06651999999997 56.58277999999999 C 407.06456 56.58082999999999 407.06138999999996 56.58082999999999 407.05944 56.582789999999996 L 407.04229 56.59994999999999 C 407.04033 56.60190999999999 407.04033 56.60506999999999 407.04229 56.607029999999995 z M 407.05141 56.62065 C 407.05219999999997 56.62258 407.05406999999997 56.62374 407.05602999999996 56.62374 C 407.05666999999994 56.62374 407.05731999999995 56.62361 407.05794999999995 56.623349999999995 L 407.08034999999995 56.614059999999995 C 407.08290999999997 56.61299999999999 407.0841199999999 56.61006999999999 407.08305999999993 56.607519999999994 C 407.08199999999994 56.604969999999994 407.0790799999999 56.603759999999994 407.07651999999996 56.60482 L 407.05411 56.61411 C 407.05156 56.61517 407.05035 56.6181 407.05141 56.62065 z M 407.08385999999996 56.63171 L 407.05959999999993 56.63172 C 407.0568399999999 56.63172 407.05459999999994 56.63396 407.0546099999999 56.63673 C 407.0546099999999 56.6395 407.0568499999999 56.64173 407.05959999999993 56.64173 L 407.08385999999996 56.64172 C 407.08662999999996 56.64172 407.08885999999995 56.63947 407.08885999999995 56.63672 C 407.08885999999995 56.63395 407.08662 56.63171 407.08385999999996 56.631719999999994 z M 407.08036999999996 56.659349999999996 L 407.05796 56.650079999999996 C 407.05539999999996 56.64901999999999 407.05246999999997 56.65022999999999 407.05142 56.652789999999996 C 407.05036 56.65535 407.05158 56.658269999999995 407.05413 56.65933 L 407.07653999999997 56.6686 C 407.07716999999997 56.668859999999995 407.07782 56.66898 407.07845999999995 56.66898 C 407.0804299999999 56.66898 407.08228999999994 56.66782 407.08308999999997 56.66589 C 407.08414 56.663329999999995 407.08291999999994 56.660399999999996 407.08038 56.659349999999996 z M 407.04939999999993 56.666419999999995 C 407.04743999999994 56.66446 407.04427999999996 56.66446 407.04232999999994 56.66643 C 407.04036999999994 56.66838 407.0403799999999 56.67154 407.04232999999994 56.6735 L 407.05949999999996 56.69065 C 407.06048 56.691629999999996 407.06174999999996 56.692119999999996 407.06302999999997 56.692119999999996 C 407.06431 56.692119999999996 407.06559999999996 56.691629999999996 407.06656999999996 56.69065 C 407.06852999999995 56.68869 407.06852 56.68552 407.06656999999996 56.683569999999996 L 407.04939999999993 56.66643 z M 407.03523999999993 56.678239999999995 C 407.03417999999994 56.67567999999999 407.0312599999999 56.674479999999996 407.02869999999996 56.675529999999995 C 407.02615 56.67659 407.02493999999996 56.67952 407.02599999999995 56.682069999999996 L 407.03529999999995 56.70446999999999 C 407.0361 56.706399999999995 407.03795999999994 56.707559999999994 407.03992999999997 56.707559999999994 C 407.04056999999995 56.707559999999994 407.04121999999995 56.70743999999999 407.04184999999995 56.707179999999994 C 407.04440999999997 56.70611999999999 407.04560999999995 56.70318999999999 407.04454999999996 56.70063 L 407.03523999999993 56.67823 z M 407.01264999999995 56.67876 C 407.00987999999995 56.67876 407.00764999999996 56.681 407.00764999999996 56.68376 L 407.00766999999996 56.70802 C 407.00766999999996 56.710789999999996 407.00991999999997 56.71302 407.01266999999996 56.71302 C 407.01543999999996 56.71302 407.01766999999995 56.71078 407.01766 56.70802 L 407.01764 56.68376 C 407.01764 56.68101 407.01538999999997 56.67876 407.01264 56.67877 z M 406.99656999999996 56.67558 C 406.99402 56.67453 406.99109999999996 56.67574 406.99003999999996 56.67829999999999 L 406.98078 56.70071999999999 C 406.97972999999996 56.70327999999999 406.98095 56.70619999999999 406.9835 56.70725999999999 C 406.98413 56.70751999999999 406.98476999999997 56.70763999999999 406.98541 56.70763999999999 C 406.98737 56.70763999999999 406.98924 56.70646999999999 406.99003 56.70453999999999 L 406.9993 56.68210999999999 C 407.00036 56.67955999999999 406.99913 56.676639999999985 406.99658 56.67557999999999 z M 406.98294 56.666489999999996 C 406.98098 56.66453 406.97781 56.664539999999995 406.97586 56.6665 L 406.95873 56.68367 C 406.95677 56.685629999999996 406.95678 56.68879 406.95874 56.69075 C 406.95972 56.691720000000004 406.96099 56.69221 406.96227 56.69221 C 406.96356 56.69221 406.96484 56.691720000000004 406.96581 56.690740000000005 L 406.98294999999996 56.673570000000005 C 406.9849 56.67161000000001 406.9849 56.66845000000001 406.98294 56.66649 z M 406.97382 56.652879999999996 C 406.97274999999996 56.65033 406.96983 56.649119999999996 406.96728 56.65018 L 406.94488 56.65949 C 406.94232 56.66055 406.94112 56.66348 406.94218 56.66603 C 406.94298000000003 56.66796 406.94484 56.669109999999996 406.9468 56.669109999999996 C 406.94744 56.669109999999996 406.94809 56.668989999999994 406.94872 56.66873 L 406.97112 56.65942 C 406.97366999999997 56.65835 406.97488 56.65542 406.97382 56.652879999999996 z M 406.97059 56.63681999999999 C 406.97059 56.634049999999995 406.96835000000004 56.63181999999999 406.96559 56.63181999999999 L 406.94133 56.63184999999999 C 406.93856 56.63184999999999 406.93631999999997 56.63408999999999 406.93633 56.63685999999999 C 406.93634 56.639619999999994 406.93858 56.641859999999994 406.94133 56.64184999999999 L 406.96559 56.64181999999999 C 406.96835000000004 56.64181999999999 406.97059 56.63956999999999 406.97058000000004 56.636819999999986 z M 406.94481 56.61419999999999 L 406.96724 56.62344999999999 C 406.96787 56.62371999999999 406.96851 56.62382999999999 406.96915 56.62382999999999 C 406.97112 56.62382999999999 406.97298 56.62266999999999 406.97378000000003 56.62073999999999 C 406.97484000000003 56.61817999999999 406.97362000000004 56.61524999999999 406.97106 56.61420999999999 L 406.94864 56.60495999999999 C 406.94608 56.60390999999999 406.94316000000003 56.60511999999999 406.94211 56.60766999999999 C 406.94105 56.610229999999994 406.94228000000004 56.613139999999994 406.94482 56.61419999999999 z M 406.97578000000004 56.60710999999999 C 406.97676000000007 56.608079999999994 406.97803000000005 56.60856999999999 406.97931000000005 56.60856999999999 C 406.98059000000006 56.60856999999999 406.98188000000005 56.608079999999994 406.9828600000001 56.60708999999999 C 406.98482000000007 56.60513999999999 406.9848100000001 56.601969999999994 406.98284000000007 56.600019999999994 L 406.96567000000005 56.582899999999995 C 406.96372 56.580949999999994 406.96054000000004 56.58096 406.95860000000005 56.582919999999994 C 406.95664000000005 56.584869999999995 406.95665 56.58803999999999 406.95861 56.58998999999999 L 406.97579 56.607119999999995 z M 406.98992000000004 56.59526999999999 C 406.99072000000007 56.59718999999999 406.99258000000003 56.59834999999999 406.99454000000003 56.59834999999999 C 406.99518 56.59834999999999 406.99583 56.59821999999999 406.99646 56.597959999999986 C 406.99901 56.596899999999984 407.00023 56.593969999999985 406.99916 56.591419999999985 L 406.98984 56.56901999999999 C 406.98878 56.56646999999999 406.98585 56.56525999999999 406.98330000000004 56.56631999999999 C 406.98075000000006 56.56738999999999 406.97954000000004 56.57031999999999 406.98060000000004 56.57285999999999 L 406.98992000000004 56.59525999999999 z" stroke-linecap="round" />
</g>
</g>
</g>
<g transform="matrix(1 0 0 1 175.357 164.972)" id="jArHZOpTicg_ANuiX1PYw"  >
<path style="stroke: none; stroke-width: 1; stroke-dasharray: none; stroke-linecap: butt; stroke-dashoffset: 0; stroke-linejoin: miter; stroke-miterlimit: 4; fill: rgb(0,0,0); fill-rule: nonzero; opacity: 1;"  transform=" translate(-175.357, -164.972)" d="M 146.277 194.692 L 118.757 153.892 L 134.917 153.892 L 162.437 194.692 L 146.277 194.692 Z M 150.917 171.572 L 143.317 160.292 L 146.677 153.892 L 161.877 153.892 L 150.917 171.572 Z M 118.277 194.692 L 129.717 176.212 L 137.317 187.492 L 133.477 194.692 L 118.277 194.692 Z M 167.957 194.692 L 167.957 135.252 L 182.757 135.252 L 182.757 194.692 L 167.957 194.692 Z M 216.277 194.692 L 188.757 153.892 L 204.917 153.892 L 232.437 194.692 L 216.277 194.692 Z M 220.917 171.572 L 213.317 160.292 L 216.677 153.892 L 231.877 153.892 L 220.917 171.572 Z M 188.277 194.692 L 199.717 176.212 L 207.317 187.492 L 203.477 194.692 L 188.277 194.692 Z" stroke-linecap="round" />
</g>
</svg>